<?xml version="1.0" standalone="no"?><svg xmlns="http://www.w3.org/2000/svg" viewBox="0 0 1440 320"><path fill="#FFBC00" fill-opacity="1" d="M0,256L13.3,234.7C26.7,213,53,171,80,165.3C106.7,160,133,192,160,218.7C186.7,245,213,267,240,245.3C266.7,224,293,160,320,138.7C346.7,117,373,139,400,149.3C426.7,160,453,160,480,138.7C506.7,117,533,75,560,101.3C586.7,128,613,224,640,234.7C666.7,245,693,171,720,154.7C746.7,139,773,181,800,181.3C826.7,181,853,139,880,133.3C906.7,128,933,160,960,149.3C986.7,139,1013,85,1040,69.3C1066.7,53,1093,75,1120,80C1146.7,85,1173,75,1200,90.7C1226.7,107,1253,149,1280,176C1306.7,203,1333,213,1360,192C1386.7,171,1413,117,1427,90.7L1440,64L1440,320L1426.7,320C1413.3,320,1387,320,1360,320C1333.3,320,1307,320,1280,320C1253.3,320,1227,320,1200,320C1173.3,320,1147,320,1120,320C1093.3,320,1067,320,1040,320C1013.3,320,987,320,960,320C933.3,320,907,320,880,320C853.3,320,827,320,800,320C773.3,320,747,320,720,320C693.3,320,667,320,640,320C613.3,320,587,320,560,320C533.3,320,507,320,480,320C453.3,320,427,320,400,320C373.3,320,347,320,320,320C293.3,320,267,320,240,320C213.3,320,187,320,160,320C133.3,320,107,320,80,320C53.3,320,27,320,13,320L0,320Z"></path></svg>