<?xml version="1.0" standalone="no"?><svg xmlns="http://www.w3.org/2000/svg" viewBox="0 0 1440 320"><path fill="#FFBC00" fill-opacity="1" d="M0,256L12,229.3C24,203,48,149,72,138.7C96,128,120,160,144,170.7C168,181,192,171,216,181.3C240,192,264,224,288,224C312,224,336,192,360,160C384,128,408,96,432,96C456,96,480,128,504,165.3C528,203,552,245,576,250.7C600,256,624,224,648,218.7C672,213,696,235,720,234.7C744,235,768,213,792,197.3C816,181,840,171,864,149.3C888,128,912,96,936,112C960,128,984,192,1008,192C1032,192,1056,128,1080,128C1104,128,1128,192,1152,202.7C1176,213,1200,171,1224,160C1248,149,1272,171,1296,197.3C1320,224,1344,256,1368,272C1392,288,1416,288,1428,288L1440,288L1440,0L1428,0C1416,0,1392,0,1368,0C1344,0,1320,0,1296,0C1272,0,1248,0,1224,0C1200,0,1176,0,1152,0C1128,0,1104,0,1080,0C1056,0,1032,0,1008,0C984,0,960,0,936,0C912,0,888,0,864,0C840,0,816,0,792,0C768,0,744,0,720,0C696,0,672,0,648,0C624,0,600,0,576,0C552,0,528,0,504,0C480,0,456,0,432,0C408,0,384,0,360,0C336,0,312,0,288,0C264,0,240,0,216,0C192,0,168,0,144,0C120,0,96,0,72,0C48,0,24,0,12,0L0,0Z"></path></svg>